<svg version="1.1" xmlns="http://www.w3.org/2000/svg" xmlns:xlink="http://www.w3.org/1999/xlink" width="12" height="14" viewBox="0 0 12 14">
<path d="M10.25 6.977q0-1.258-0.68-2.305l-5.891 5.883q1.070 0.695 2.32 0.695 0.867 0 1.652-0.34t1.355-0.91 0.906-1.363 0.336-1.66zM2.445 9.313l5.898-5.891q-1.055-0.711-2.344-0.711-1.156 0-2.133 0.57t-1.547 1.555-0.57 2.141q0 1.266 0.695 2.336zM12 6.977q0 1.227-0.477 2.344t-1.277 1.922-1.914 1.281-2.332 0.477-2.332-0.477-1.914-1.281-1.277-1.922-0.477-2.344 0.477-2.34 1.277-1.918 1.914-1.281 2.332-0.477 2.332 0.477 1.914 1.281 1.277 1.918 0.477 2.34z"></path>
</svg>
