<svg version="1.1" xmlns="http://www.w3.org/2000/svg" xmlns:xlink="http://www.w3.org/1999/xlink" width="12" height="14" viewBox="0 0 12 14">
<path d="M7.992 7.5h2.469q-0.008-0.023-0.020-0.062t-0.020-0.062l-1.656-3.875h-5.531l-1.656 3.875q-0.008 0.016-0.020 0.062t-0.020 0.062h2.469l0.742 1.5h2.5zM12 7.734v3.766q0 0.203-0.148 0.352t-0.352 0.148h-11q-0.203 0-0.352-0.148t-0.148-0.352v-3.766q0-0.484 0.195-0.961l1.859-4.313q0.078-0.195 0.285-0.328t0.41-0.133h6.5q0.203 0 0.41 0.133t0.285 0.328l1.859 4.313q0.195 0.477 0.195 0.961z"></path>
</svg>
