<svg version="1.1" xmlns="http://www.w3.org/2000/svg" xmlns:xlink="http://www.w3.org/1999/xlink" width="14" height="14" viewBox="0 0 14 14">
<path d="M5 8.453v0.547q0 0.328-0.305 0.461-0.102 0.039-0.195 0.039-0.211 0-0.352-0.148l-4-4q-0.148-0.148-0.148-0.352t0.148-0.352l4-4q0.227-0.242 0.547-0.109 0.305 0.133 0.305 0.461v0.539l-3.102 3.109q-0.148 0.148-0.148 0.352t0.148 0.352zM14 8.75q0 0.453-0.133 1.043t-0.301 1.078-0.375 0.977-0.316 0.707l-0.156 0.312q-0.062 0.133-0.219 0.133-0.047 0-0.070-0.008-0.195-0.062-0.18-0.266 0.336-3.125-0.828-4.414-0.5-0.555-1.332-0.863t-2.090-0.41v1.961q0 0.328-0.305 0.461-0.102 0.039-0.195 0.039-0.211 0-0.352-0.148l-4-4q-0.148-0.148-0.148-0.352t0.148-0.352l4-4q0.227-0.242 0.547-0.109 0.305 0.133 0.305 0.461v2.047q3.211 0.219 4.68 1.727 1.32 1.352 1.32 3.977z"></path>
</svg>
