<svg version="1.1" xmlns="http://www.w3.org/2000/svg" xmlns:xlink="http://www.w3.org/1999/xlink" width="14" height="14" viewBox="0 0 14 14">
<path d="M13.781 0.086q0.258 0.187 0.211 0.5l-2 12q-0.039 0.227-0.25 0.352-0.109 0.062-0.242 0.062-0.086 0-0.187-0.039l-4.117-1.68-2.328 2.555q-0.141 0.164-0.367 0.164-0.109 0-0.18-0.031-0.148-0.055-0.234-0.184t-0.086-0.285v-3.531l-3.687-1.508q-0.289-0.109-0.312-0.43-0.023-0.305 0.25-0.461l13-7.5q0.273-0.164 0.531 0.016zM11.109 11.797l1.727-10.336-11.203 6.461 2.625 1.070 6.742-4.992-3.734 6.227z"></path>
</svg>
